<svg width="31" height="39" viewBox="0 0 31 39" fill="none" xmlns="http://www.w3.org/2000/svg">
<path d="M23.4688 9.9375L26.875 21.5781L28.4219 26.7344L29.8125 31.4062L30 32H20.5L17.5 20.9531L11.0469 30.6562L4.42188 21.4375C3.78646 23.6875 3.09375 26.4479 2.34375 29.7188C2.07292 30.9688 1.875 31.7135 1.75 31.9531C1.63542 32.1823 1.39583 32.2969 1.03125 32.2969C0.572917 32.2969 0.34375 32.1406 0.34375 31.8281C0.34375 31.7344 0.489583 31.2083 0.78125 30.25L1.75 26.9219L3.4375 21.1719L6.73438 9.9375L15.2969 22.3281L23.4688 9.9375Z" fill="white"/>
<path d="M18.084 12.4727L19.832 9.20117C20.6979 7.59961 21.388 6.26497 21.9023 5.19727C22.0391 4.91081 22.1465 4.72201 22.2246 4.63086C22.3092 4.5332 22.4102 4.48438 22.5273 4.48438C22.638 4.48438 22.7357 4.52344 22.8203 4.60156C22.9049 4.67318 22.9473 4.76107 22.9473 4.86523C22.9473 4.97591 22.8789 5.15169 22.7422 5.39258C22.7096 5.45117 22.6771 5.50651 22.6445 5.55859C22.5794 5.66276 22.4948 5.80924 22.3906 5.99805L15.1641 19.0254L6.82422 4.66992H13.6699L18.084 12.4727Z" fill="white"/>
</svg>
