<svg width="46" height="46" viewBox="0 0 46 46" fill="none" xmlns="http://www.w3.org/2000/svg">
<g clip-path="url(#clip0_78_42)">
<path d="M23.0015 9.20068C16.868 9.20068 13.036 12.2662 11.5015 18.3996C13.8007 15.3338 16.4849 14.1841 19.5507 14.9507C21.3013 15.387 22.5522 16.6563 23.9376 18.0629C26.1924 20.351 28.8021 23 34.5015 23C40.6346 23 44.4669 19.9341 46.0015 13.7992C43.7018 16.8669 41.018 18.0165 37.9518 17.25C36.2017 16.8133 34.9521 15.5444 33.5649 14.1378C31.3117 11.8496 28.7026 9.20068 23.0015 9.20068ZM11.5015 23C5.36837 23 1.536 26.0658 0.00146484 32.2007C2.30075 29.1331 4.98456 27.9834 8.05075 28.75C9.80126 29.1866 11.0522 30.4556 12.4376 31.8622C14.6924 34.1503 17.3021 36.7992 23.0015 36.7992C29.1346 36.7992 32.9669 33.7338 34.5015 27.6003C32.2018 30.6662 29.518 31.8158 26.4518 31.0492C24.7017 30.613 23.4521 29.3437 22.0649 27.9371C19.8117 25.6489 17.2026 23 11.5015 23Z" fill="#38BDF8"/>
</g>
<defs>
<clipPath id="clip0_78_42">
<rect width="46" height="46" fill="white"/>
</clipPath>
</defs>
</svg>
