<svg width="25" height="25" viewBox="0 0 25 25" fill="none" xmlns="http://www.w3.org/2000/svg">
<g clip-path="url(#clip0_89_19)">
<path d="M12.4998 0.245605C10.8982 0.245605 9.31245 0.568873 7.83288 1.19695C6.3533 1.82503 5.00892 2.74562 3.8765 3.90615C1.58947 6.24998 0.304626 9.42888 0.304626 12.7435C0.304626 18.2675 3.80463 22.9542 8.64611 24.6165C9.25586 24.7165 9.45099 24.3291 9.45099 23.9916V21.8794C6.07292 22.6293 5.35341 20.2047 5.35341 20.2047C4.79243 18.755 3.99975 18.3675 3.99975 18.3675C2.88999 17.5927 4.08511 17.6177 4.08511 17.6177C5.30463 17.7052 5.95097 18.905 5.95097 18.905C7.01196 20.8046 8.80464 20.2422 9.49977 19.9423C9.60952 19.1299 9.9266 18.58 10.2681 18.2675C7.56074 17.9551 4.71926 16.8803 4.71926 12.1186C4.71926 10.7313 5.18267 9.619 5.97536 8.73168C5.85341 8.41925 5.42658 7.11943 6.09731 5.43223C6.09731 5.43223 7.12172 5.09479 9.45099 6.70699C10.4144 6.43205 11.4632 6.29461 12.4998 6.29461C13.5364 6.29461 14.5851 6.43205 15.5485 6.70699C17.8778 5.09479 18.9022 5.43223 18.9022 5.43223C19.5729 7.11943 19.1461 8.41925 19.0242 8.73168C19.8168 9.619 20.2803 10.7313 20.2803 12.1186C20.2803 16.8928 17.4266 17.9426 14.7071 18.255C15.1461 18.6425 15.5485 19.4049 15.5485 20.5672V23.9916C15.5485 24.3291 15.7437 24.729 16.3656 24.6165C21.2071 22.9417 24.6949 18.2675 24.6949 12.7435C24.6949 11.1022 24.3795 9.47705 23.7666 7.96077C23.1537 6.44443 22.2554 5.06669 21.123 3.90615C19.9906 2.74562 18.6462 1.82503 17.1666 1.19695C15.687 0.568873 14.1012 0.245605 12.4998 0.245605Z" fill="#ECEDEE"/>
</g>
<defs>
<clipPath id="clip0_89_19">
<rect width="25" height="25" fill="white"/>
</clipPath>
</defs>
</svg>
