<svg width="46" height="46" viewBox="0 0 46 46" fill="none" xmlns="http://www.w3.org/2000/svg">
<path d="M23 3.54578C22.4825 3.54578 21.9458 3.67994 21.505 3.92911L7.245 12.1708C6.325 12.7074 5.75 13.7041 5.75 14.7774V31.2224C5.75 32.2958 6.325 33.2924 7.245 33.8291L10.9825 35.9758C12.8033 36.8574 13.4167 36.8766 14.26 36.8766C16.9433 36.8766 18.4958 35.2474 18.4958 32.4108V16.1766C18.4958 15.9466 18.3042 15.7549 18.0742 15.7549H16.2917C16.0425 15.7549 15.8508 15.9466 15.8508 16.1766V32.4108C15.8508 33.6758 14.5475 34.9216 12.4583 33.8674L8.52917 31.6249C8.46463 31.5794 8.41186 31.5191 8.37521 31.4491C8.33855 31.3791 8.31906 31.3014 8.31833 31.2224V14.7774C8.31833 14.6049 8.395 14.4516 8.52917 14.3749L22.7892 6.15244C22.9042 6.07578 23.0958 6.07578 23.2108 6.15244L37.4708 14.3749C37.605 14.4516 37.6817 14.6049 37.6817 14.7774V31.2224C37.6817 31.3758 37.605 31.5291 37.4708 31.6249L23.2108 39.8474C23.0958 39.9241 22.9042 39.9241 22.77 39.8474L19.1667 37.6624C19.0133 37.6049 18.86 37.5858 18.7642 37.6433C17.7483 38.2183 17.5567 38.3333 16.6175 38.6208C16.3875 38.6974 16.0233 38.8316 16.7517 39.2341L21.505 42.0516C21.965 42.3199 22.4633 42.4541 23 42.4541C23.5367 42.4541 24.035 42.3199 24.495 42.0516L38.755 33.8291C39.675 33.2924 40.25 32.2958 40.25 31.2224V14.7774C40.25 13.7041 39.675 12.7074 38.755 12.1708L24.495 3.92911C24.0542 3.67994 23.5367 3.54578 23 3.54578ZM26.8333 15.3333C22.77 15.3333 20.3358 17.0391 20.3358 19.9141C20.3358 22.9999 22.7508 23.9008 26.6608 24.2841C31.3183 24.7441 31.6825 25.4341 31.6825 26.3541C31.6825 27.9449 30.3983 28.6158 27.4083 28.6158C23.6133 28.6158 22.8083 27.6766 22.5208 25.7983C22.5007 25.7012 22.4478 25.614 22.371 25.5512C22.2943 25.4884 22.1983 25.4538 22.0992 25.4533H20.2592C20.0292 25.4533 19.8567 25.6258 19.8567 25.8749C19.8567 28.2516 21.16 31.1266 27.4083 31.1266C31.9125 31.1266 34.5 29.3441 34.5 26.2391C34.5 23.1533 32.43 22.3483 28.0408 21.7541C23.6133 21.1791 23.1725 20.8724 23.1725 19.8374C23.1725 18.9749 23.5558 17.8249 26.8333 17.8249C29.7083 17.8249 30.8392 18.4574 31.28 20.4316C31.3183 20.6233 31.4908 20.7574 31.6825 20.7574H33.5417C33.6375 20.7574 33.7525 20.7191 33.8292 20.6233C33.9058 20.5466 33.9633 20.4316 33.925 20.3166C33.6567 16.9049 31.395 15.3333 26.8333 15.3333Z" fill="white"/>
</svg>
