<svg width="46" height="40" viewBox="0 0 46 40" fill="none" xmlns="http://www.w3.org/2000/svg">
<g clip-path="url(#clip0_78_17)">
<path d="M37.8212 12.9515C37.3316 12.7876 36.8379 12.6356 36.3405 12.4959C36.4241 12.1626 36.501 11.8333 36.5693 11.5098C37.6902 6.19734 36.9574 1.91751 34.4545 0.50839C32.0548 -0.842487 28.1303 0.56611 24.1667 3.934C23.7761 4.26652 23.3941 4.60862 23.0212 4.95997C22.7716 4.72633 22.5175 4.49723 22.2591 4.27278C18.1051 0.671724 13.9414 -0.845995 11.4412 0.567162C9.04367 1.92225 8.33373 5.94558 9.34285 10.9803C9.44325 11.479 9.55661 11.975 9.68282 12.468C9.09345 12.6315 8.52473 12.8056 7.98046 12.9908C3.11021 14.6487 0 17.2468 0 19.9417C0 22.7251 3.33895 25.5168 8.41153 27.2096C8.82277 27.3463 9.23744 27.4729 9.65515 27.5894C9.51949 28.1204 9.39905 28.655 9.29398 29.1926C8.33193 34.14 9.0832 38.0682 11.4743 39.4147C13.9439 40.8052 18.089 39.3761 22.1249 35.9314C22.4522 35.6513 22.7723 35.3633 23.0848 35.0677C23.4887 35.4481 23.9033 35.8175 24.3282 36.1754C28.2379 39.46 32.099 40.7863 34.4878 39.4361C36.9551 38.0415 37.757 33.8215 36.7159 28.6873C36.6339 28.2851 36.5419 27.8849 36.4401 27.487C36.7312 27.4028 37.0169 27.3161 37.2954 27.2259C42.5689 25.5201 46 22.7622 46 19.9417C46 17.237 42.7893 14.6214 37.8212 12.9515ZM36.6775 25.4049C36.4259 25.4861 36.1679 25.5645 35.9048 25.6408C35.3226 23.8414 34.537 21.928 33.5755 19.951C34.493 18.0212 35.2484 16.1322 35.8142 14.3445C36.2848 14.4775 36.7414 14.6177 37.1817 14.7656C41.4385 16.1965 44.0349 18.3117 44.0349 19.9417C44.0349 21.6779 41.2307 23.9317 36.6775 25.4049ZM34.7882 29.06C35.2486 31.3301 35.3142 33.3828 35.0092 34.9875C34.7354 36.4294 34.1845 37.3907 33.5031 37.7758C32.0536 38.5951 28.9534 37.5301 25.61 34.721C25.2147 34.3883 24.829 34.0449 24.4533 33.6912C25.7496 32.3072 27.0449 30.6982 28.3092 28.9112C30.533 28.7186 32.6339 28.4035 34.5392 27.9735C34.631 28.3337 34.714 28.6959 34.7882 29.06ZM15.6824 37.6342C14.2661 38.1224 13.138 38.1365 12.4561 37.7526C11.0051 36.9356 10.4019 33.7814 11.2247 29.5505C11.3225 29.0505 11.4345 28.5533 11.5606 28.0594C13.4448 28.4665 15.5304 28.7591 17.7594 28.9356C19.0323 30.6842 20.3651 32.2914 21.7082 33.6987C21.4228 33.9684 21.1306 34.2312 20.8319 34.4868C19.0471 36.01 17.2586 37.0907 15.6824 37.6342ZM9.04727 25.3942C6.80423 24.6456 4.95183 23.6728 3.68216 22.6112C2.54114 21.6573 1.96524 20.7101 1.96524 19.9417C1.96524 18.3063 4.46236 16.2203 8.62734 14.8026C9.1328 14.6307 9.6618 14.4684 10.2107 14.3161C10.7865 16.1442 11.5415 18.0556 12.4527 19.9884C11.5296 21.9498 10.7638 23.8917 10.1825 25.7414C9.80125 25.6347 9.42272 25.519 9.04727 25.3942ZM11.2714 10.6117C10.407 6.29821 10.9811 3.04436 12.4259 2.22769C13.9648 1.35786 17.3677 2.59804 20.9544 5.70751C21.1883 5.91074 21.4184 6.11808 21.6446 6.32944C20.3081 7.73067 18.9876 9.32593 17.726 11.0642C15.5626 11.26 13.4917 11.5744 11.5877 11.9956C11.4704 11.537 11.3649 11.0755 11.2714 10.6117ZM31.1138 15.3956C30.6641 14.6371 30.1977 13.8883 29.7149 13.1494C31.1826 13.3307 32.5888 13.5712 33.9094 13.8652C33.513 15.1059 33.0188 16.403 32.4372 17.7328C32.012 16.9452 31.5708 16.166 31.1138 15.3956ZM23.0221 7.70067C23.9284 8.65944 24.8362 9.72979 25.7291 10.8912C23.9178 10.8077 22.1036 10.8073 20.2923 10.8901C21.1861 9.73944 22.1016 8.6705 23.0221 7.70067ZM14.8785 15.4087C14.4272 16.1729 13.9942 16.9473 13.5799 17.7312C13.0078 16.4061 12.5181 15.1031 12.1183 13.8449C13.4307 13.5582 14.8303 13.3238 16.2887 13.1459C15.8005 13.8893 15.3303 14.6439 14.8785 15.4087ZM16.3305 26.874C14.8239 26.7098 13.4032 26.4875 12.0912 26.2086C12.4973 24.9279 12.9977 23.5972 13.5822 22.2437C13.9982 23.0281 14.433 23.803 14.8862 24.5675C15.3523 25.3535 15.835 26.1233 16.3305 26.874ZM23.0764 32.3179C22.1449 31.3368 21.2159 30.2514 20.3086 29.084C21.1895 29.1177 22.0874 29.1349 23 29.1349C23.9376 29.1349 24.8644 29.1144 25.7767 29.0747C24.881 30.2631 23.9766 31.3501 23.0764 32.3179ZM32.4557 22.1745C33.0706 23.5429 33.5888 24.8666 34.0003 26.1254C32.6666 26.4226 31.2266 26.6619 29.7094 26.8396C30.1955 26.0871 30.6664 25.3252 31.1215 24.5544C31.5843 23.7708 32.0291 22.9774 32.4557 22.1745ZM29.4193 23.5958C28.7225 24.7776 27.9866 25.937 27.2126 27.0721C25.8106 27.169 24.4055 27.2172 23 27.2165C21.5684 27.2165 20.176 27.1729 18.8352 27.088C18.041 25.9555 17.291 24.7941 16.5868 23.6063C15.8858 22.4247 15.2313 21.2176 14.6242 19.9875C15.2298 18.7571 15.8825 17.5494 16.581 16.367L16.5808 16.3672C17.2791 15.1844 18.0231 14.0279 18.8113 12.9003C20.1793 12.7993 21.5821 12.7466 22.9998 12.7466C24.424 12.7466 25.8288 12.7998 27.1964 12.9015C27.9766 14.0275 28.7159 15.18 29.4129 16.3568C30.1137 17.5367 30.7751 18.7385 31.3959 19.9603C30.7815 21.1947 30.1222 22.4072 29.4193 23.5958ZM33.4731 2.1705C35.0134 3.03786 35.6124 6.53558 34.6446 11.1224C34.5828 11.4151 34.5135 11.7131 34.438 12.0154C32.5294 11.5852 30.457 11.2654 28.2873 11.0666C27.0234 9.30927 25.7136 7.71155 24.3989 6.32839C24.7434 6.00409 25.0962 5.68821 25.4569 5.38102C28.853 2.49558 32.027 1.35629 33.4731 2.1705ZM23 15.9312C25.2686 15.9312 27.1077 17.7268 27.1077 19.9417C27.1077 22.1566 25.2686 23.9522 23 23.9522C20.7314 23.9522 18.8923 22.1566 18.8923 19.9417C18.8923 17.7268 20.7314 15.9312 23 15.9312Z" fill="#00D8FF"/>
</g>
<defs>
<clipPath id="clip0_78_17">
<rect width="46" height="40" fill="white"/>
</clipPath>
</defs>
</svg>
